<?xml version="1.0" encoding="UTF-8"?>
<svg version="1.1" xmlns="http://www.w3.org/2000/svg" width="512" height="512">
<path d="M0 0 C1.01201477 0.00054382 2.02402954 0.00108765 3.06671143 0.00164795 C19.59887291 0.04238923 35.523992 0.95817716 51.75 4.375 C52.78125 4.58930664 53.8125 4.80361328 54.875 5.02441406 C101.10680927 14.94980561 143.72188765 37.60106665 177.75 70.375 C178.7390332 71.32318604 178.7390332 71.32318604 179.74804688 72.29052734 C189.23630305 81.43497479 197.9762044 90.73234009 205.75 101.375 C206.60806152 102.52605017 207.46613451 103.67709177 208.32421875 104.828125 C214.36236829 113.01930614 219.72095521 121.53304105 224.75 130.375 C225.11448242 131.00680176 225.47896484 131.63860352 225.85449219 132.28955078 C240.78473018 158.37464001 250.26385054 187.71085114 254.75 217.375 C254.92660156 218.49745117 255.10320312 219.61990234 255.28515625 220.77636719 C256.9420586 232.38947743 257.14873513 243.90679945 257.125 255.625 C257.12418427 257.14302216 257.12418427 257.14302216 257.12335205 258.69171143 C257.08261077 275.22387291 256.16682284 291.148992 252.75 307.375 C252.42854004 308.921875 252.42854004 308.921875 252.10058594 310.5 C242.17519439 356.73180927 219.52393335 399.34688765 186.75 433.375 C186.11787598 434.03435547 185.48575195 434.69371094 184.83447266 435.37304688 C175.69002521 444.86130305 166.39265991 453.6012044 155.75 461.375 C154.59894983 462.23306152 153.44790823 463.09113451 152.296875 463.94921875 C144.10569386 469.98736829 135.59195895 475.34595521 126.75 480.375 C126.11819824 480.73948242 125.48639648 481.10396484 124.83544922 481.47949219 C98.75035999 496.40973018 69.41414886 505.88885054 39.75 510.375 C38.62754883 510.55160156 37.50509766 510.72820312 36.34863281 510.91015625 C24.73552257 512.5670586 13.21820055 512.77373513 1.5 512.75 C-0.01802216 512.74918427 -0.01802216 512.74918427 -1.56671143 512.74835205 C-18.09887291 512.70761077 -34.023992 511.79182284 -50.25 508.375 C-51.796875 508.05354004 -51.796875 508.05354004 -53.375 507.72558594 C-99.60680927 497.80019439 -142.22188765 475.14893335 -176.25 442.375 C-176.90935547 441.74287598 -177.56871094 441.11075195 -178.24804688 440.45947266 C-187.73630305 431.31502521 -196.4762044 422.01765991 -204.25 411.375 C-205.10806152 410.22394983 -205.96613451 409.07290823 -206.82421875 407.921875 C-212.86236829 399.73069386 -218.22095521 391.21695895 -223.25 382.375 C-223.61448242 381.74319824 -223.97896484 381.11139648 -224.35449219 380.46044922 C-239.28473018 354.37535999 -248.76385054 325.03914886 -253.25 295.375 C-253.51490234 293.69132324 -253.51490234 293.69132324 -253.78515625 291.97363281 C-255.4420586 280.36052257 -255.64873513 268.84320055 -255.625 257.125 C-255.62445618 256.11298523 -255.62391235 255.10097046 -255.62335205 254.05828857 C-255.58261077 237.52612709 -254.66682284 221.601008 -251.25 205.375 C-251.03569336 204.34375 -250.82138672 203.3125 -250.60058594 202.25 C-240.67519439 156.01819073 -218.02393335 113.40311235 -185.25 79.375 C-184.61787598 78.71564453 -183.98575195 78.05628906 -183.33447266 77.37695312 C-174.19002521 67.88869695 -164.89265991 59.1487956 -154.25 51.375 C-153.09894983 50.51693848 -151.94790823 49.65886549 -150.796875 48.80078125 C-142.60569386 42.76263171 -134.09195895 37.40404479 -125.25 32.375 C-124.61819824 32.01051758 -123.98639648 31.64603516 -123.33544922 31.27050781 C-97.25035999 16.34026982 -67.91414886 6.86114946 -38.25 2.375 C-37.12754883 2.19839844 -36.00509766 2.02179687 -34.84863281 1.83984375 C-23.23552257 0.1829414 -11.71820055 -0.02373513 0 0 Z " fill="#225588" transform="translate(255.25,-0.375)"/>
<path d="M0 0 C0.77423813 -0.0065712 1.54847626 -0.0131424 2.34617615 -0.01991272 C4.92601617 -0.0397231 7.50579728 -0.05133606 10.08569336 -0.0612793 C10.96947599 -0.06535482 11.85325863 -0.06943035 12.76382256 -0.07362938 C17.45712935 -0.0945401 22.15040662 -0.10881032 26.84375 -0.11816406 C31.65482349 -0.12913515 36.46542239 -0.16341061 41.27632999 -0.20333576 C45.00256599 -0.22973134 48.72869396 -0.23787685 52.45501518 -0.24144554 C54.22532735 -0.24626625 55.9956362 -0.25774828 57.76585579 -0.27648354 C72.08650518 -0.4184117 85.93300685 0.95137033 98.86303711 7.73950195 C99.51651123 8.0746582 100.16998535 8.40981445 100.84326172 8.75512695 C107.77246891 12.50347875 113.18956335 17.52893649 118.61303711 23.17700195 C119.62624023 24.19600586 119.62624023 24.19600586 120.65991211 25.2355957 C133.72701896 39.14107888 138.10550191 56.14652762 137.82788086 74.75512695 C137.16485613 93.78105407 128.52716919 110.60733017 115.61303711 124.17700195 C116.19182617 125.04325195 116.77061523 125.90950195 117.36694336 126.80200195 C117.91632568 127.62764648 117.91632568 127.62764648 118.47680664 128.4699707 C119.50828358 130.01962406 120.54290549 131.56718292 121.57788086 133.11450195 C132.96439663 150.79178584 134.93593932 168.31752616 134.84350586 188.91137695 C134.84231111 190.68402065 134.84186152 192.456665 134.84211731 194.22930908 C134.84056522 197.91373755 134.83236642 201.59806708 134.81884766 205.2824707 C134.80170896 210.0137784 134.79803825 214.74497942 134.79879284 219.47631454 C134.79852187 223.12214177 134.79305489 226.76794551 134.7857914 230.41376495 C134.78260472 232.16015699 134.78063732 233.90655168 134.77989769 235.65294647 C134.77774259 238.07735312 134.76902102 240.50164352 134.75830078 242.92602539 C134.75875397 243.65006561 134.75920715 244.37410583 134.75967407 245.12008667 C134.72752717 250.06251189 134.72752717 250.06251189 133.61303711 251.17700195 C132.26208729 251.26969194 130.9063662 251.29447522 129.55224609 251.29052734 C128.69142929 251.29045181 127.83061249 251.29037628 126.94371033 251.29029846 C126.0082991 251.28513718 125.07288788 251.27997589 124.10913086 251.2746582 C123.15611588 251.27324326 122.20310089 251.27182831 121.22120667 251.27037048 C118.16428546 251.26475347 115.10743634 251.25219811 112.05053711 251.23950195 C109.98348087 251.23448914 107.91642349 251.22992586 105.84936523 251.22583008 C100.77056123 251.21477852 95.69181141 251.1975025 90.61303711 251.17700195 C90.60756866 249.66935776 90.60756866 249.66935776 90.60198975 248.1312561 C90.56493895 238.62755101 90.50705667 229.12416692 90.42913437 219.62070656 C90.38973991 214.73565006 90.35751217 209.85077166 90.34204102 204.96557617 C90.32682137 200.24504749 90.29228226 195.52500869 90.24472809 190.80469894 C90.22996883 189.00996551 90.22199925 187.21516212 90.22115326 185.42036819 C90.20798535 171.48347962 88.99943081 161.81581215 78.99194336 151.3137207 C72.63964459 145.60812559 65.9833426 144.10747712 57.65991211 143.8605957 C56.66957977 143.82942406 56.66957977 143.82942406 55.65924072 143.79762268 C53.56060696 143.73250049 51.46185339 143.67341694 49.36303711 143.61450195 C47.93594164 143.57128116 46.50885806 143.52766575 45.08178711 143.48364258 C41.59232989 143.37685784 38.10273958 143.2754863 34.61303711 143.17700195 C34.6139589 143.72752952 34.6148807 144.27805708 34.61583042 144.8452673 C34.63788701 158.22297203 34.65438556 171.6006736 34.66484928 184.9783926 C34.67007879 191.44767876 34.67717767 197.91695184 34.68847656 204.38623047 C34.69930303 210.62370495 34.70531343 216.86116683 34.70791435 223.09864998 C34.70976904 225.48420472 34.71339047 227.86975874 34.71876717 230.25530815 C34.7259744 233.58395787 34.72702819 236.91255474 34.7265625 240.24121094 C34.73015778 241.23814468 34.73375305 242.23507843 34.73745728 243.26222229 C34.73608261 244.16391144 34.73470795 245.06560059 34.73329163 245.99461365 C34.73421342 246.78274665 34.73513521 247.57087965 34.73608494 248.38289547 C34.61303711 250.17700195 34.61303711 250.17700195 33.61303711 251.17700195 C30.5105251 251.2657433 27.43035591 251.2921865 24.32788086 251.2746582 C23.39706192 251.27324326 22.46624298 251.27182831 21.50721741 251.27037048 C18.5216252 251.26475367 15.53610682 251.25219835 12.55053711 251.23950195 C10.53165798 251.23448912 8.51277768 251.22992584 6.49389648 251.22583008 C1.53358139 251.21477878 -3.42667821 251.19750291 -8.38696289 251.17700195 C-8.40975263 219.34550252 -8.42746074 187.51400539 -8.43802822 155.68249971 C-8.439279 151.92846985 -8.44057331 148.17444 -8.44189453 144.42041016 C-8.44215684 143.67301877 -8.44241915 142.92562739 -8.44268941 142.15558778 C-8.44704624 130.03799026 -8.45493386 117.92039746 -8.46411569 105.80280275 C-8.47345186 93.37831187 -8.47901842 80.95382348 -8.48105139 68.52932924 C-8.48242669 60.85656641 -8.48677767 53.18381693 -8.49487936 45.5110582 C-8.50076706 39.63752768 -8.50142195 33.76400408 -8.50007057 27.8904705 C-8.5003471 25.47366631 -8.5023548 23.05686163 -8.50616837 20.64006042 C-8.51109878 17.35609562 -8.5099636 14.07218925 -8.50721741 10.78822327 C-8.51013025 9.81839903 -8.51304309 8.8485748 -8.5160442 7.84936196 C-8.51405315 6.97652201 -8.5120621 6.10368207 -8.51001072 5.20439243 C-8.51039044 4.44533149 -8.51077016 3.68627055 -8.51116139 2.90420777 C-8.20019197 -1.42038712 -3.31760058 0.01208721 0 0 Z " fill="#FDFEFE" transform="translate(275.386962890625,130.822998046875)"/>
<path d="M0 0 C15.87224601 12.10595035 25.92503163 28.43622274 29.22265625 48.12109375 C29.30294571 50.4702079 29.33031448 52.82141044 29.3203125 55.171875 C29.31781494 56.37755127 29.31531738 57.58322754 29.31274414 58.82543945 C29.30364014 60.34613037 29.29453613 61.86682129 29.28515625 63.43359375 C29.26453125 68.28046875 29.24390625 73.12734375 29.22265625 78.12109375 C15.03265625 78.12109375 0.84265625 78.12109375 -13.77734375 78.12109375 C-14.08984375 66.68359375 -14.08984375 66.68359375 -14.1652832 63.13500977 C-14.48335737 53.98979716 -15.65551512 46.61382276 -22.08984375 39.74609375 C-22.82847656 38.93398437 -23.56710938 38.121875 -24.328125 37.28515625 C-30.57327267 31.76711509 -36.0988707 31.64297213 -44.14453125 31.84765625 C-51.97546496 32.43708137 -55.94208957 34.63712969 -61.13671875 40.5 C-66.22396111 48.62747529 -67.36360958 56.09248618 -67.29492188 65.55639648 C-67.30193115 66.75938385 -67.30894043 67.96237122 -67.31616211 69.20181274 C-67.3306594 72.4727387 -67.32739014 75.74300747 -67.31464577 79.01392245 C-67.30443784 82.45607688 -67.31393308 85.89819093 -67.32019043 89.34034729 C-67.32744536 95.11931099 -67.31793718 100.89806949 -67.29882812 106.67700195 C-67.27707363 113.33228344 -67.28410873 119.98707437 -67.30613375 126.64234394 C-67.32436198 132.38283969 -67.32680976 138.12318888 -67.31637907 143.86370426 C-67.3101833 147.28062625 -67.30919885 150.69731869 -67.32252502 154.11422539 C-67.33274283 157.92861417 -67.31711391 161.74207628 -67.29492188 165.55639648 C-67.3030188 166.66998032 -67.31111572 167.78356415 -67.31945801 168.93089294 C-67.21653939 178.53393472 -65.19456944 187.5375922 -58.421875 194.6875 C-52.48337554 199.86429169 -46.23902814 201.5710081 -38.5 201.45703125 C-31.86690853 200.63860103 -26.48769674 197.24765357 -21.90234375 192.49609375 C-13.02998211 181.09176098 -14.09753913 167.96954404 -13.77734375 154.12109375 C0.41265625 154.12109375 14.60265625 154.12109375 29.22265625 154.12109375 C29.26390625 158.49359375 29.30515625 162.86609375 29.34765625 167.37109375 C29.36586426 168.72364258 29.38407227 170.07619141 29.40283203 171.46972656 C29.45084903 182.11091208 28.67784138 192.28036372 24.22265625 202.05859375 C23.92069336 202.72971191 23.61873047 203.40083008 23.30761719 204.09228516 C15.02960394 221.60537925 0.16585127 235.16042586 -17.90234375 241.93359375 C-34.40218134 247.8209492 -53.88879257 246.75015404 -69.69433594 239.55761719 C-87.06247524 231.2277501 -99.99804867 217.62050934 -106.94415283 199.53184509 C-112.30318468 184.02604331 -112.34994908 169.39462166 -112.2734375 153.1015625 C-112.2716742 150.38983274 -112.27503481 147.67811322 -112.27784729 144.96638489 C-112.28053328 139.30391765 -112.26721801 133.64166431 -112.24389648 127.97924805 C-112.21733569 121.48651926 -112.21553341 114.99414843 -112.22728485 108.50138396 C-112.23816935 102.19131527 -112.2317905 95.88137267 -112.21772957 89.57131386 C-112.21205727 86.91587573 -112.212841 84.26068377 -112.21679497 81.60521507 C-112.24784211 42.40677972 -112.24784211 42.40677972 -103.77734375 26.12109375 C-103.35839844 25.28707031 -102.93945312 24.45304687 -102.5078125 23.59375 C-93.28799152 6.77488349 -77.6857503 -4.92811962 -59.66015625 -10.9140625 C-38.84806982 -16.49336248 -17.69317257 -11.96964277 0 0 Z " fill="#FDFDFE" transform="translate(210.77734375,139.87890625)"/>
<path d="M0 0 C5.8575 -0.12375 11.715 -0.2475 17.75 -0.375 C19.57241211 -0.42962402 21.39482422 -0.48424805 23.27246094 -0.54052734 C34.28183706 -0.73314176 42.96527605 0.54238661 51.48144531 8.24414062 C57.41694746 14.32169374 60.05012552 19.99743181 60.4375 28.4375 C60.157735 36.87707756 56.66718453 43.08793761 51 49.20703125 C43.9224604 55.55193492 36.99266821 57.16023892 27.734375 57.09765625 C27.03070801 57.09664917 26.32704102 57.09564209 25.60205078 57.09460449 C22.98468384 57.08939005 20.36734021 57.07542881 17.75 57.0625 C11.8925 57.041875 6.035 57.02125 0 57 C0 38.19 0 19.38 0 0 Z " fill="#25578A" transform="translate(310,174)"/>
</svg>
